<svg width="56" height="56" viewBox="0 0 56 56" fill="none" xmlns="http://www.w3.org/2000/svg">
<rect width="56" height="56" rx="28" fill="#4B6CC1"/>
<path d="M24.932 37.036C23.54 37.036 22.484 36.64 21.764 35.848C21.044 35.032 20.684 34.036 20.684 32.86C20.684 31.732 20.996 30.568 21.62 29.368C22.244 28.144 23.192 27.004 24.464 25.948C25.76 24.892 27.38 24.064 29.324 23.464C28.604 23.392 27.896 23.2 27.2 22.888C26.504 22.552 25.916 22.12 25.436 21.592C24.98 21.04 24.752 20.416 24.752 19.72C24.752 19.192 24.908 18.652 25.22 18.1C25.556 17.452 26.072 16.924 26.768 16.516C27.488 16.084 28.292 15.76 29.18 15.544C30.092 15.304 30.98 15.184 31.844 15.184C32.66 15.184 33.344 15.304 33.896 15.544C34.448 15.784 34.88 16.048 35.192 16.336C35.624 15.592 36.128 15.076 36.704 14.788C37.28 14.5 37.82 14.356 38.324 14.356C38.804 14.356 39.2 14.452 39.512 14.644C39.824 14.836 39.98 15.064 39.98 15.328C39.98 15.544 39.86 15.736 39.62 15.904C39.116 16.288 38.684 16.672 38.324 17.056C37.964 17.416 37.652 17.764 37.388 18.1C36.86 18.82 36.356 19.648 35.876 20.584C35.396 21.52 35.108 22.492 35.012 23.5C34.652 23.62 34.388 23.488 34.22 23.104C34.076 22.696 34.004 22.18 34.004 21.556C34.004 20.956 34.052 20.32 34.148 19.648C34.268 18.952 34.424 18.304 34.616 17.704C34.52 17.68 34.412 17.668 34.292 17.668C34.172 17.668 34.052 17.668 33.932 17.668C33.5 17.668 33.044 17.728 32.564 17.848C32.084 17.944 31.58 18.124 31.052 18.388C30.764 18.532 30.44 18.76 30.08 19.072C29.744 19.384 29.444 19.744 29.18 20.152C28.94 20.56 28.82 20.968 28.82 21.376C28.82 21.712 28.94 22.048 29.18 22.384C29.444 22.696 29.9 22.972 30.548 23.212C30.98 23.236 31.388 23.476 31.772 23.932C32.18 24.364 32.384 24.784 32.384 25.192C32.384 25.552 32.216 25.804 31.88 25.948C30.416 26.476 29.132 27.22 28.028 28.18C26.948 29.14 26.108 30.136 25.508 31.168C24.932 32.2 24.644 33.1 24.644 33.868C24.644 34.372 24.776 34.78 25.04 35.092C25.328 35.404 25.772 35.56 26.372 35.56C27.044 35.56 27.788 35.308 28.604 34.804C29.42 34.276 30.236 33.616 31.052 32.824C31.868 32.008 32.612 31.168 33.284 30.304C33.956 29.416 34.496 28.6 34.904 27.856C35.024 27.88 35.192 27.892 35.408 27.892C35.648 27.892 35.852 27.952 36.02 28.072C36.212 28.168 36.308 28.372 36.308 28.684C36.308 28.924 36.224 29.248 36.056 29.656C35.888 30.064 35.6 30.592 35.192 31.24C34.664 32.056 33.98 32.824 33.14 33.544C32.3 34.24 31.4 34.852 30.44 35.38C29.48 35.908 28.52 36.316 27.56 36.604C26.6 36.892 25.724 37.036 24.932 37.036Z" fill="white"/>
</svg>
